<?xml version="1.0" encoding="UTF-8"?>
<!-- Standalone Bucky (idle pose)  open in browser or import into design tools -->
<svg viewBox="0 0 80 80" xmlns="http://www.w3.org/2000/svg" role="img" aria-label="Bucky the Builder">
  <title>Bucky the Builder</title>
  <ellipse cx="62" cy="58" rx="10" ry="7" fill="#6B4423"/>
  <path d="M22 48 Q40 72 58 48 L54 62 Q40 68 26 62 Z" fill="#2563EB"/>
  <rect x="30" y="52" width="20" height="8" rx="2" fill="#1D4ED8"/>
  <text x="40" y="58" text-anchor="middle" fill="#FBBF24" font-size="5" font-weight="700" font-family="Fredoka, Arial, sans-serif">BUCKY</text>
  <circle cx="40" cy="38" r="22" fill="#A0784F"/>
  <ellipse cx="40" cy="42" rx="16" ry="14" fill="#C49A6C"/>
  <circle cx="24" cy="24" r="6" fill="#8B5E3C"/>
  <circle cx="56" cy="24" r="6" fill="#8B5E3C"/>
  <circle cx="24" cy="24" r="3" fill="#E8C4A0"/>
  <circle cx="56" cy="24" r="3" fill="#E8C4A0"/>
  <path d="M18 28 Q40 12 62 28 L60 22 Q40 8 20 22 Z" fill="#FBBF24" stroke="#D97706" stroke-width="1.5"/>
  <rect x="18" y="26" width="44" height="5" rx="2" fill="#F59E0B"/>
  <text x="40" y="24" text-anchor="middle" fill="#1C1917" font-size="11" font-weight="800" font-family="Fredoka, Arial, sans-serif">B</text>
  <ellipse cx="32" cy="36" rx="4" ry="5" fill="#1C1917"/>
  <ellipse cx="48" cy="36" rx="4" ry="5" fill="#1C1917"/>
  <circle cx="33" cy="35" r="1.2" fill="#fff"/>
  <circle cx="49" cy="35" r="1.2" fill="#fff"/>
  <ellipse cx="40" cy="44" rx="5" ry="3.5" fill="#5C3D2E"/>
  <path d="M32 46 Q40 52 48 46" fill="none" stroke="#1C1917" stroke-width="1.5" stroke-linecap="round"/>
  <rect x="34" y="46" width="5" height="6" rx="1" fill="#FEFCE8"/>
  <rect x="41" y="46" width="5" height="6" rx="1" fill="#FEFCE8"/>
  <ellipse cx="18" cy="44" rx="5" ry="7" fill="#8B5E3C"/>
  <ellipse cx="62" cy="46" rx="5" ry="7" fill="#8B5E3C"/>
</svg>
