<?xml version="1.0" encoding="UTF-8"?>
<svg xmlns="http://www.w3.org/2000/svg" viewBox="0 0 301 364" width="301" height="364" role="img" aria-label="Beaver mascot thinking">
  <title>Beaver  thinking</title>
  <style>
    @media (prefers-reduced-motion: no-preference) {
      .head { animation: think-tilt 2s ease-in-out infinite; transform-origin: 150px 140px; }
      .thought { animation: thought-float 2s ease-in-out infinite; }
    }
    @keyframes think-tilt {
      0%, 100% { transform: rotate(0deg); }
      30% { transform: rotate(-5deg); }
      70% { transform: rotate(4deg); }
    }
    @keyframes thought-float {
      0%, 100% { transform: translateY(0); opacity: 0.75; }
      50% { transform: translateY(-8px); opacity: 1; }
    }
  </style>
  <g class="beaver-root">
    <g class="tail">
      <path fill="#502d16" stroke="#000" stroke-width="4" stroke-linejoin="round" d="M48 248s-95-76 26-98c68-22 42 94 42 94l-15 4z"/>
    </g>
    <ellipse cx="150" cy="248" rx="118" ry="108" fill="#784421" stroke="#000" stroke-width="4"/>
    <g class="head">
      <path fill="#784421" stroke="#000" stroke-width="4" stroke-linejoin="round" d="M150 88c-38 0-68 30-68 68s30 68 68 68 68-30 68-68-30-68-68-68z"/>
      <ellipse cx="108" cy="72" rx="22" ry="20" fill="#784421" stroke="#000" stroke-width="4"/>
      <ellipse cx="192" cy="72" rx="22" ry="20" fill="#784421" stroke="#000" stroke-width="4"/>
      <ellipse cx="108" cy="72" rx="10" ry="9" fill="#502d16"/>
      <ellipse cx="192" cy="72" rx="10" ry="9" fill="#502d16"/>
      <ellipse cx="122" cy="140" rx="20" ry="6" fill="#fff" stroke="#000" stroke-width="3"/>
      <ellipse cx="178" cy="140" rx="20" ry="6" fill="#fff" stroke="#000" stroke-width="3"/>
      <circle cx="130" cy="140" r="7" fill="#000"/>
      <circle cx="186" cy="140" r="7" fill="#000"/>
      <g class="buck-teeth">
        <path fill="#3d2518" stroke="#000" stroke-width="2" d="M130 158 Q150 150 170 158 L168 184 Q150 192 132 184 Z"/>
        <rect x="135" y="162" width="12" height="22" rx="2.5" fill="#fff" stroke="#000" stroke-width="2.5"/>
        <rect x="154" y="162" width="12" height="22" rx="2.5" fill="#fff" stroke="#000" stroke-width="2.5"/>
        <ellipse cx="150" cy="154" rx="12" ry="8" fill="#502d16" stroke="#000" stroke-width="2.5"/>
      </g>
    </g>
    <g class="thought" transform="translate(210 42)">
      <circle cx="0" cy="0" r="10" fill="#fff" stroke="#784421" stroke-width="3" opacity="0.9"/>
      <circle cx="18" cy="-18" r="14" fill="#fff" stroke="#784421" stroke-width="3" opacity="0.9"/>
      <circle cx="38" cy="-42" r="20" fill="#fff" stroke="#784421" stroke-width="3" opacity="0.9"/>
      <text x="38" y="-36" text-anchor="middle" font-size="18" font-family="Nunito, sans-serif" fill="#784421">?</text>
    </g>
    <ellipse cx="118" cy="318" rx="52" ry="38" fill="#784421" stroke="#000" stroke-width="4"/>
    <ellipse cx="182" cy="318" rx="52" ry="38" fill="#784421" stroke="#000" stroke-width="4"/>
    <g fill="#502d16" stroke="#000" stroke-width="4">
      <ellipse cx="108" cy="332" rx="15" ry="10"/>
      <ellipse cx="128" cy="332" rx="15" ry="10"/>
      <ellipse cx="172" cy="332" rx="15" ry="10"/>
      <ellipse cx="192" cy="332" rx="15" ry="10"/>
    </g>
  </g>
</svg>
